<?xml version="1.0" encoding="UTF-8"?><svg id="Layer_1" xmlns="http://www.w3.org/2000/svg" viewBox="0 0 120 120"><defs><style>.cls-1{fill:#fff;}.cls-2{fill:red;}</style></defs><circle class="cls-2" cx="60" cy="60" r="60"/><path class="cls-1" d="M52.06,85.31c2.11-1.95,4.76-2.93,7.94-2.93s5.83.98,7.94,2.93c2.11,1.95,3.17,4.48,3.17,7.59s-1.06,5.64-3.17,7.59c-2.11,1.95-4.76,2.93-7.94,2.93s-5.83-.98-7.94-2.93c-2.11-1.95-3.17-4.48-3.17-7.59s1.05-5.63,3.17-7.59ZM50.68,45.97l-.37-21.11c-.06-3.44,2.72-6.27,6.16-6.27h7.08c3.43,0,6.21,2.81,6.16,6.24l-.28,21.13-1.24,22.67c-.18,3.27-2.88,5.83-6.15,5.83h-4.08c-3.28,0-5.99-2.57-6.15-5.85l-1.14-22.65Z"/></svg>