<?xml version="1.0" encoding="UTF-8"?>
<svg id="Layer_2" xmlns="http://www.w3.org/2000/svg" version="1.1" viewBox="0 0 109.2 78.2">
  <!-- Generator: Adobe Illustrator 29.5.1, SVG Export Plug-In . SVG Version: 2.1.0 Build 141)  -->
  <defs>
    <style>
      .st0 {
        fill: #dcdcdc;
      }
    </style>
  </defs>
  <g id="Layer_1-2">
    <path class="st0" d="M108.7,37.1C98,17.8,77.8,4.7,54.6,4.7s-9.8.6-14.4,1.7l12,12c.8,0,1.6-.1,2.4-.1,11.5,0,20.8,9.3,20.8,20.8s0,1.6,0,2.4l18,18c6.2-5.1,11.4-11.3,15.3-18.5.7-1.2.7-2.7,0-4h0Z"/>
    <path class="st0" d="M88.1,63.4l-14.9-14.9-28-28h0l-11.9-11.9h0L25.3.6c-.8-.8-2-.8-2.8,0l-6.3,6.3c-.8.8-.8,2,0,2.8l5,5h0c-1.8,1.2-3.6,2.5-5.3,3.9-6.2,5.2-11.5,11.5-15.4,18.6-.6,1.2-.6,2.6,0,3.7,10.7,19.4,30.9,32.5,54.2,32.5s9.7-.6,14.3-1.7c2.4-.6,4.7-1.3,7-2.2l8,8c.8.8,2,.8,2.8,0l6.3-6.3c.8-.8.8-2.1,0-2.8l-5-5h0ZM57,59.8c-.8,0-1.6,0-2.4,0-11.5,0-20.8-9.3-20.8-20.8s0-1.6,0-2.4c.3-2.5,1-4.9,2.1-7l28,28c-2.2,1.1-4.5,1.8-7,2.1Z"/>
  </g>
</svg>